<svg xmlns="http://www.w3.org/2000/svg" width="24.985" height="20" viewBox="0 0 24.985 20">
  <g id="noun_Arrow_Back_225669" data-name="noun_Arrow Back_225669" transform="translate(0 10)">
    <g id="Group_164" data-name="Group 164" transform="translate(0 -10)">
      <g id="Group_163" data-name="Group 163" transform="translate(0 0)">
        <g id="Group_162" data-name="Group 162">
          <path id="Path_81" data-name="Path 81" d="M1.16,20.183a.931.931,0,0,0,.659-.271l9.137-9.075a.92.92,0,0,0,0-1.308L1.818.454A.936.936,0,0,0,.5.454a.92.92,0,0,0,0,1.308L8.98,10.183.5,18.6a.92.92,0,0,0,0,1.308.932.932,0,0,0,.659.271" transform="translate(13.756 -0.183)" fill="#313543" fill-rule="evenodd"/>
          <path id="Path_82" data-name="Path 82" d="M1.16,28.234H24.282a.925.925,0,1,0,0-1.85H1.16a.925.925,0,1,0,0,1.85" transform="translate(-0.228 -17.309)" fill="#313543" fill-rule="evenodd"/>
        </g>
      </g>
    </g>
  </g>
</svg>
 