<svg xmlns="http://www.w3.org/2000/svg" width="376" height="301" viewBox="0 0 376 301">
  <g id="Group_31465" data-name="Group 31465" transform="translate(1 -3719)">
    <path id="Rectangle_4402" data-name="Rectangle 4402" d="M0,0H376a0,0,0,0,1,0,0V146A154,154,0,0,1,222,300H0a0,0,0,0,1,0,0V0A0,0,0,0,1,0,0Z" transform="translate(-1 3719)" fill="#a150d9"/>
    <path id="Rectangle_4407" data-name="Rectangle 4407" d="M0,0H6A58,58,0,0,1,64,58v0A58,58,0,0,1,6,116H0a0,0,0,0,1,0,0V0A0,0,0,0,1,0,0Z" transform="translate(297 3734)" fill="#714bac"/>
    <path id="Rectangle_4409" data-name="Rectangle 4409" d="M0,0H94a0,0,0,0,1,0,0V94a0,0,0,0,1,0,0h0A94,94,0,0,1,0,0V0A0,0,0,0,1,0,0Z" transform="translate(-1 3813) rotate(-90)" fill="#6ad4f9"/>
    <rect id="Rectangle_4411" data-name="Rectangle 4411" width="54" height="54" rx="27" transform="translate(271 3889)" fill="#6ad4f9"/>
    <text id="Words_from_clients" data-name="Words 
from clients" transform="translate(20 3858)" fill="#fff" font-size="40" font-family="Poppins-Bold, Poppins" font-weight="700" letter-spacing="0.04em"><tspan x="0" y="0">Words </tspan><tspan x="0" y="50">from clients</tspan></text>
    <path id="Subtraction_51" data-name="Subtraction 51" d="M94,94h0a94.781,94.781,0,0,1-18.945-1.909,93.683,93.683,0,0,1-17.644-5.478,93.867,93.867,0,0,1-15.966-8.667A94.729,94.729,0,0,1,27.532,66.467,94.855,94.855,0,0,1,16.054,52.556,93.982,93.982,0,0,1,7.388,36.588,93.547,93.547,0,0,1,1.91,18.943,94.749,94.749,0,0,1,0,0H49.951V.2A44.335,44.335,0,0,0,94,44.441V94Z" transform="translate(94 4020) rotate(180)" fill="#f1acca"/>
  </g>
</svg>
