<svg xmlns="http://www.w3.org/2000/svg" width="504.319" height="187.612" viewBox="0 0 504.319 187.612">
  <g id="tagline_" data-name="tagline " transform="translate(-23 -23)">
    <rect id="Rectangle_4783" data-name="Rectangle 4783" width="18" height="18" transform="translate(79.5 115.5)" fill="none" stroke="#fff" stroke-width="5"/>
    <rect id="Rectangle_4784" data-name="Rectangle 4784" width="18" height="18" transform="translate(97.5 115.5)" fill="none" stroke="#fff" stroke-width="5"/>
    <rect id="Rectangle_4785" data-name="Rectangle 4785" width="36" height="36" transform="translate(79.5 133.5)" fill="none" stroke="#fff" stroke-width="5"/>
    <rect id="Rectangle_4786" data-name="Rectangle 4786" width="54" height="54" transform="translate(25.5 115.5)" fill="none" stroke="#fff" stroke-width="5"/>
    <rect id="Rectangle_4787" data-name="Rectangle 4787" width="90" height="90" transform="translate(25.5 25.5)" fill="none" stroke="#fff" stroke-width="5"/>
    <path id="Path_47962" data-name="Path 47962" d="M139.424,114.437h34.749v7.533H147.281V140.6h23.571v7.533H147.281V173h-7.857Zm44.491,25.029h7.533V173h-7.533Zm-.567-12.069a3.69,3.69,0,0,1,1.377-3,4.839,4.839,0,0,1,3.159-1.215,4.537,4.537,0,0,1,3.078,1.215,3.69,3.69,0,0,1,1.377,3,3.926,3.926,0,0,1-1.377,3.078,4.721,4.721,0,0,1-3.078,1.134,5.042,5.042,0,0,1-3.159-1.134A3.926,3.926,0,0,1,183.348,127.4Zm41.7,46.413a17.155,17.155,0,0,1-7.614-1.62,16.9,16.9,0,0,1-5.346-4.293V173H204.56V110.225h7.533V144a14.114,14.114,0,0,1,5.67-4.293,20.142,20.142,0,0,1,8.262-1.62,16.2,16.2,0,0,1,14.175,8.262,18.455,18.455,0,0,1,2.268,9.315,18.715,18.715,0,0,1-2.43,9.8,16.876,16.876,0,0,1-6.4,6.237A18.039,18.039,0,0,1,225.053,173.81Zm-1.62-6.48a10.821,10.821,0,0,0,8.1-3.24,11.567,11.567,0,0,0,3.24-8.424,11.2,11.2,0,0,0-1.539-5.832,10.987,10.987,0,0,0-9.8-5.751,11.951,11.951,0,0,0-7.29,2.268,10.517,10.517,0,0,0-4.05,5.832v6.885a11.046,11.046,0,0,0,3.969,5.913A11.582,11.582,0,0,0,223.433,167.33Zm26.226-11.421a17.1,17.1,0,0,1,8.991-15.471,19.453,19.453,0,0,1,9.639-2.349,19,19,0,0,1,9.558,2.349,16.562,16.562,0,0,1,6.4,6.4,18.693,18.693,0,0,1,0,18.144,16.974,16.974,0,0,1-6.48,6.48,19.166,19.166,0,0,1-9.639,2.349,20.435,20.435,0,0,1-9.558-2.187,16.56,16.56,0,0,1-6.561-6.237A18.553,18.553,0,0,1,249.659,155.909Zm7.614.081a12.719,12.719,0,0,0,1.377,5.913,11.434,11.434,0,0,0,3.888,4.131,10.075,10.075,0,0,0,5.508,1.539,10.221,10.221,0,0,0,5.589-1.539,10.791,10.791,0,0,0,3.807-4.131,12.145,12.145,0,0,0,1.458-5.913,11.687,11.687,0,0,0-1.458-5.832,10.646,10.646,0,0,0-3.807-4.212,9.841,9.841,0,0,0-5.589-1.62,10.093,10.093,0,0,0-5.589,1.62,11.259,11.259,0,0,0-3.807,4.293A12.065,12.065,0,0,0,257.273,155.99Zm46.244-16.524.486,6.48a12.991,12.991,0,0,1,5.265-5.67,15.934,15.934,0,0,1,8.262-2.106,10.744,10.744,0,0,1,7.7,2.835,9.719,9.719,0,0,1,3.24,7.209V173h-7.614V150.806a6.925,6.925,0,0,0-1.7-4.374,5.977,5.977,0,0,0-4.617-1.782,9.275,9.275,0,0,0-7.371,3.564,13.658,13.658,0,0,0-2.916,9.072V173h-7.533V139.466ZM355.5,173.81a18.477,18.477,0,0,1-8.667-2.025,15.219,15.219,0,0,1-6.075-5.913,22.146,22.146,0,0,1,.081-19.359,16.469,16.469,0,0,1,6.237-6.237,17.664,17.664,0,0,1,8.667-2.187,14.412,14.412,0,0,1,7.7,1.944,15.31,15.31,0,0,1,4.941,4.7l.567-5.265h6.966V173h-7.533v-5.508a15.4,15.4,0,0,1-2.835,2.754,16.91,16.91,0,0,1-4.374,2.511A14.538,14.538,0,0,1,355.5,173.81Zm2.025-6.237a11.132,11.132,0,0,0,7.047-2.268,10.9,10.9,0,0,0,3.807-6.318v-6.642a10.517,10.517,0,0,0-4.05-5.751,11.571,11.571,0,0,0-7.047-2.268,10.927,10.927,0,0,0-5.589,1.458,11.2,11.2,0,0,0-4.05,4.05,12.018,12.018,0,0,0-1.458,5.994,11.8,11.8,0,0,0,1.539,5.994,12.329,12.329,0,0,0,4.131,4.212A10.9,10.9,0,0,0,357.523,167.573Zm31.5-57.348h7.533V173h-7.533Zm34.658,63.585a18.477,18.477,0,0,1-8.667-2.025,15.219,15.219,0,0,1-6.075-5.913,22.146,22.146,0,0,1,.081-19.359,16.469,16.469,0,0,1,6.237-6.237,17.664,17.664,0,0,1,8.667-2.187,14.412,14.412,0,0,1,7.7,1.944,15.31,15.31,0,0,1,4.941,4.7l.567-5.265H444.1V173h-7.533v-5.508a15.4,15.4,0,0,1-2.835,2.754,16.91,16.91,0,0,1-4.374,2.511A14.538,14.538,0,0,1,423.683,173.81Zm2.025-6.237a11.132,11.132,0,0,0,7.047-2.268,10.9,10.9,0,0,0,3.807-6.318v-6.642a10.517,10.517,0,0,0-4.05-5.751,11.571,11.571,0,0,0-7.047-2.268,10.927,10.927,0,0,0-5.589,1.458,11.2,11.2,0,0,0-4.05,4.05,12.018,12.018,0,0,0-1.458,5.994,11.794,11.794,0,0,0,1.539,5.994,12.329,12.329,0,0,0,4.131,4.212A10.9,10.9,0,0,0,425.708,167.573ZM477.7,173.81a17.155,17.155,0,0,1-7.614-1.62,16.9,16.9,0,0,1-5.346-4.293V173H457.21V110.225h7.533V144a14.113,14.113,0,0,1,5.67-4.293,20.142,20.142,0,0,1,8.262-1.62,16.2,16.2,0,0,1,14.175,8.262,18.455,18.455,0,0,1,2.268,9.315,18.715,18.715,0,0,1-2.43,9.8,16.876,16.876,0,0,1-6.4,6.237A18.039,18.039,0,0,1,477.7,173.81Zm-1.62-6.48a10.821,10.821,0,0,0,8.1-3.24,11.567,11.567,0,0,0,3.24-8.424,11.2,11.2,0,0,0-1.539-5.832,10.987,10.987,0,0,0-9.8-5.751,11.951,11.951,0,0,0-7.29,2.268,10.517,10.517,0,0,0-4.05,5.832v6.885a11.046,11.046,0,0,0,3.969,5.913A11.582,11.582,0,0,0,476.083,167.33Zm38.619,6.318a20.8,20.8,0,0,1-7.047-1.215,13.834,13.834,0,0,1-5.508-3.807l3.24-4.374a15.076,15.076,0,0,0,4.293,3.078,11.082,11.082,0,0,0,4.374.972,8.667,8.667,0,0,0,4.212-.972,3.438,3.438,0,0,0,1.863-3.321,3.561,3.561,0,0,0-1.215-2.835,7.566,7.566,0,0,0-3-1.62q-1.782-.648-3.726-1.3-8.586-2.754-8.586-9.8a10.083,10.083,0,0,1,1.3-4.941,10.37,10.37,0,0,1,3.969-3.807,13.546,13.546,0,0,1,6.561-1.458,20.226,20.226,0,0,1,6.237.891,16.3,16.3,0,0,1,5.184,2.835l-3,4.617a9.317,9.317,0,0,0-3.483-2.187,10.766,10.766,0,0,0-3.564-.891,7.234,7.234,0,0,0-3.888,1.053,3.3,3.3,0,0,0-1.62,2.916,3.35,3.35,0,0,0,1.053,2.754,9.345,9.345,0,0,0,2.916,1.62q1.863.648,3.726,1.215a18.631,18.631,0,0,1,6.156,3.321,7.468,7.468,0,0,1,2.592,6.156,10.874,10.874,0,0,1-3.24,7.857Q521.263,173.648,514.7,173.648Z" transform="translate(-0.424)" fill="#fff"/>
    <path id="Path_47963" data-name="Path 47963" d="M142.508,196.9A5.044,5.044,0,0,1,146,198.012a3.921,3.921,0,0,1,1.26,3.1,5.325,5.325,0,0,1-.234,1.548,3.85,3.85,0,0,1-.774,1.4,3.7,3.7,0,0,1-1.368,1.008,5.114,5.114,0,0,1-2.088.378h-1.89V210H138.8V196.9Zm.288,6.534a2.333,2.333,0,0,0,1.44-.4,2.064,2.064,0,0,0,.72-.936,2.619,2.619,0,0,0,.216-.954,2.677,2.677,0,0,0-.2-.936,1.881,1.881,0,0,0-.684-.918,2.365,2.365,0,0,0-1.44-.378h-1.944v4.518ZM149.8,196.9h2.106v11.088h6.462V210H149.8Zm9.97,13.1,5.8-13.644h.126l5.8,13.644H169.08l-1.206-3.078H163.1L161.844,210Zm4.068-4.878h3.33L165.534,201Zm11.637.63-4.842-8.856h2.574l3.384,6.462,3.312-6.462h2.574l-4.914,8.856V210h-2.088Zm18.462,3.042a3.6,3.6,0,0,1-1.08.63,11.159,11.159,0,0,1-1.62.522,7.341,7.341,0,0,1-1.638.2,7.639,7.639,0,0,1-3.654-.828,6.1,6.1,0,0,1-2.394-2.286,6.345,6.345,0,0,1-.846-3.276,7.905,7.905,0,0,1,.54-3.024,6.212,6.212,0,0,1,1.476-2.2,6.308,6.308,0,0,1,2.142-1.332,7.4,7.4,0,0,1,2.574-.45,8.468,8.468,0,0,1,2.2.27,7.567,7.567,0,0,1,1.746.684l-.684,1.944a5.5,5.5,0,0,0-.9-.378,6.545,6.545,0,0,0-1.08-.306,5.352,5.352,0,0,0-1.008-.108,4.951,4.951,0,0,0-3.546,1.242,4.584,4.584,0,0,0-1.3,3.474,4.454,4.454,0,0,0,.612,2.358,4.21,4.21,0,0,0,1.674,1.566,5.376,5.376,0,0,0,2.5.558,6.433,6.433,0,0,0,1.188-.108,3.2,3.2,0,0,0,.99-.342v-2.178h-2.466v-2.016h4.572Zm6.873-11.9a5.949,5.949,0,0,1,2.538.5,3.7,3.7,0,0,1,1.692,1.44,4.054,4.054,0,0,1,.612,2.268,5.182,5.182,0,0,1-.486,2.178,3.477,3.477,0,0,1-1.638,1.656L206.718,210h-2.43l-2.952-4.554H199.23V210h-2.106V196.9Zm.288,6.534a2.543,2.543,0,0,0,1.458-.36,1.977,1.977,0,0,0,.72-.9,2.387,2.387,0,0,0,.018-1.944,2,2,0,0,0-.7-.918,2.253,2.253,0,0,0-1.422-.4H199.23v4.518Zm6.919.036a6.41,6.41,0,0,1,.522-2.574,6.733,6.733,0,0,1,1.44-2.142,6.643,6.643,0,0,1,2.124-1.458,6.394,6.394,0,0,1,2.61-.54,6.226,6.226,0,0,1,2.574.54,6.941,6.941,0,0,1,3.6,3.6,6.448,6.448,0,0,1,0,5.166,6.643,6.643,0,0,1-1.458,2.124,6.732,6.732,0,0,1-2.142,1.44,6.41,6.41,0,0,1-2.574.522,6.787,6.787,0,0,1-2.61-.5,6.946,6.946,0,0,1-2.124-1.422,6.789,6.789,0,0,1-1.44-2.124A6.628,6.628,0,0,1,208.021,203.466Zm2.16,0a4.637,4.637,0,0,0,.612,2.358,4.758,4.758,0,0,0,1.638,1.674,4.441,4.441,0,0,0,2.34.63,4.191,4.191,0,0,0,2.268-.63,4.678,4.678,0,0,0,2.232-4.032,4.7,4.7,0,0,0-2.25-4.068,4.528,4.528,0,0,0-4.608,0,4.67,4.67,0,0,0-1.638,1.71A4.747,4.747,0,0,0,210.181,203.466Zm15.939,1.818a2.675,2.675,0,0,0,.4,1.422,3.107,3.107,0,0,0,1.062,1.026,3.073,3.073,0,0,0,1.512.378,3.146,3.146,0,0,0,1.548-.378,3.06,3.06,0,0,0,1.08-1.026,2.675,2.675,0,0,0,.4-1.422V196.9h2.07v8.442a4.609,4.609,0,0,1-.684,2.52,4.8,4.8,0,0,1-1.836,1.692,5.874,5.874,0,0,1-5.148,0,4.832,4.832,0,0,1-1.818-1.692,4.7,4.7,0,0,1-.666-2.52V196.9h2.088Zm22.971,5.184-9.45-9.162L239.7,210h-2.124V196.446h.108l9.414,9.288-.036-8.838h2.088v13.572Zm3.668-.468V196.9h3.726a8.347,8.347,0,0,1,3.33.594,5.824,5.824,0,0,1,2.214,1.566,6.037,6.037,0,0,1,1.224,2.178,7.528,7.528,0,0,1,.4,2.394,6.555,6.555,0,0,1-.522,2.664,5.883,5.883,0,0,1-1.44,2,6.4,6.4,0,0,1-2.088,1.278,7.114,7.114,0,0,1-2.484.432Zm2.106-2.016h1.872a5.482,5.482,0,0,0,2.448-.522,3.979,3.979,0,0,0,1.692-1.512,4.669,4.669,0,0,0,.612-2.466,4.8,4.8,0,0,0-.414-2.088,3.79,3.79,0,0,0-1.062-1.422,4.12,4.12,0,0,0-1.422-.81,4.624,4.624,0,0,0-1.53-.27h-2.2ZM272.218,196.9h7.956v2.016h-5.85v3.69h5.094v2h-5.094V210h-2.106Zm9.7,6.57a6.41,6.41,0,0,1,.522-2.574,6.733,6.733,0,0,1,1.44-2.142,6.643,6.643,0,0,1,2.124-1.458,6.394,6.394,0,0,1,2.61-.54,6.226,6.226,0,0,1,2.574.54,6.941,6.941,0,0,1,3.6,3.6,6.448,6.448,0,0,1,0,5.166,6.644,6.644,0,0,1-1.458,2.124,6.732,6.732,0,0,1-2.142,1.44,6.41,6.41,0,0,1-2.574.522,6.787,6.787,0,0,1-2.61-.5,6.946,6.946,0,0,1-2.124-1.422,6.789,6.789,0,0,1-1.44-2.124A6.628,6.628,0,0,1,281.92,203.466Zm2.16,0a4.638,4.638,0,0,0,.612,2.358,4.758,4.758,0,0,0,1.638,1.674,4.441,4.441,0,0,0,2.34.63,4.191,4.191,0,0,0,2.268-.63,4.678,4.678,0,0,0,2.232-4.032,4.7,4.7,0,0,0-2.25-4.068,4.528,4.528,0,0,0-4.608,0,4.67,4.67,0,0,0-1.638,1.71A4.747,4.747,0,0,0,284.08,203.466Zm17.738-6.57a5.949,5.949,0,0,1,2.538.5,3.7,3.7,0,0,1,1.692,1.44,4.054,4.054,0,0,1,.612,2.268,5.183,5.183,0,0,1-.486,2.178,3.478,3.478,0,0,1-1.638,1.656L307.722,210h-2.43l-2.952-4.554h-2.106V210h-2.106V196.9Zm.288,6.534a2.543,2.543,0,0,0,1.458-.36,1.977,1.977,0,0,0,.72-.9,2.387,2.387,0,0,0,.018-1.944,2,2,0,0,0-.7-.918,2.253,2.253,0,0,0-1.422-.4h-1.944v4.518Zm17.428-6.534a5.3,5.3,0,0,1,3.15.828,2.8,2.8,0,0,1,1.17,2.466,3.419,3.419,0,0,1-.45,1.782,3.2,3.2,0,0,1-1.242,1.188,4.207,4.207,0,0,1,1.692,1.242,2.769,2.769,0,0,1,.648,1.836,3.465,3.465,0,0,1-.648,2.2,3.641,3.641,0,0,1-1.656,1.188,6.1,6.1,0,0,1-2.16.378h-4.086V196.9Zm.342,5.58a1.647,1.647,0,0,0,1.368-.54,2,2,0,0,0,.45-1.3,1.528,1.528,0,0,0-.558-1.314,2.484,2.484,0,0,0-1.512-.414h-1.566v3.564Zm.072,5.58a3.167,3.167,0,0,0,1.692-.432,1.514,1.514,0,0,0,.7-1.368,1.436,1.436,0,0,0-.378-1.062,2.138,2.138,0,0,0-.972-.54,4.367,4.367,0,0,0-1.188-.162h-1.746v3.564Zm9.232-2.772a2.675,2.675,0,0,0,.4,1.422,3.108,3.108,0,0,0,1.062,1.026,3.073,3.073,0,0,0,1.512.378,3.146,3.146,0,0,0,1.548-.378,3.06,3.06,0,0,0,1.08-1.026,2.675,2.675,0,0,0,.4-1.422V196.9h2.07v8.442a4.609,4.609,0,0,1-.684,2.52,4.8,4.8,0,0,1-1.836,1.692,5.874,5.874,0,0,1-5.148,0,4.832,4.832,0,0,1-1.818-1.692,4.7,4.7,0,0,1-.666-2.52V196.9h2.088Zm18.328-5.724a9.738,9.738,0,0,0-1.494-.612,4.575,4.575,0,0,0-1.512-.27,2.521,2.521,0,0,0-1.548.432,1.39,1.39,0,0,0-.558,1.188,1.34,1.34,0,0,0,.4.954,3.839,3.839,0,0,0,1.008.7,12.758,12.758,0,0,0,1.3.558,9.347,9.347,0,0,1,1.53.72,3.739,3.739,0,0,1,1.206,5.058,3.717,3.717,0,0,1-1.494,1.35,5.071,5.071,0,0,1-2.358.5,7.573,7.573,0,0,1-2.376-.378,8.335,8.335,0,0,1-2.016-1.008l.936-1.638a6.287,6.287,0,0,0,1.548.828,4.919,4.919,0,0,0,1.71.342,3.451,3.451,0,0,0,1.1-.18,2,2,0,0,0,.918-.594,1.565,1.565,0,0,0,.378-1.1,1.458,1.458,0,0,0-.324-.954,2.86,2.86,0,0,0-.846-.684,6.88,6.88,0,0,0-1.116-.54q-.612-.234-1.26-.522a6.05,6.05,0,0,1-1.17-.7,3.526,3.526,0,0,1-.882-1.044,3.063,3.063,0,0,1-.342-1.512,3.389,3.389,0,0,1,1.89-3.132,5.107,5.107,0,0,1,2.07-.5,7.144,7.144,0,0,1,2.358.342,8.084,8.084,0,0,1,1.746.792Zm3.6-2.664h2.106V210h-2.106Zm17.232,13.572-9.45-9.162.054,8.694h-2.124V196.446h.108l9.414,9.288-.036-8.838h2.088v13.572Zm3.668-13.572H380.7v2.016h-6.588V202.4h5.868v2.016h-5.868v3.564h6.84V210h-8.946Zm18.724,2.664a9.738,9.738,0,0,0-1.494-.612,4.576,4.576,0,0,0-1.512-.27,2.521,2.521,0,0,0-1.548.432,1.39,1.39,0,0,0-.558,1.188,1.34,1.34,0,0,0,.4.954,3.839,3.839,0,0,0,1.008.7,12.755,12.755,0,0,0,1.3.558,9.347,9.347,0,0,1,1.53.72,3.739,3.739,0,0,1,1.206,5.058,3.717,3.717,0,0,1-1.494,1.35,5.071,5.071,0,0,1-2.358.5,7.573,7.573,0,0,1-2.376-.378,8.336,8.336,0,0,1-2.016-1.008l.936-1.638a6.287,6.287,0,0,0,1.548.828,4.919,4.919,0,0,0,1.71.342,3.451,3.451,0,0,0,1.1-.18,2,2,0,0,0,.918-.594,1.565,1.565,0,0,0,.378-1.1,1.458,1.458,0,0,0-.324-.954,2.86,2.86,0,0,0-.846-.684,6.879,6.879,0,0,0-1.116-.54q-.612-.234-1.26-.522a6.05,6.05,0,0,1-1.17-.7,3.526,3.526,0,0,1-.882-1.044,3.063,3.063,0,0,1-.342-1.512,3.389,3.389,0,0,1,1.89-3.132,5.107,5.107,0,0,1,2.07-.5,7.144,7.144,0,0,1,2.358.342,8.084,8.084,0,0,1,1.746.792Zm10.476,0a9.738,9.738,0,0,0-1.494-.612,4.575,4.575,0,0,0-1.512-.27,2.521,2.521,0,0,0-1.548.432,1.39,1.39,0,0,0-.558,1.188,1.34,1.34,0,0,0,.4.954,3.838,3.838,0,0,0,1.008.7,12.755,12.755,0,0,0,1.3.558,9.346,9.346,0,0,1,1.53.72,3.739,3.739,0,0,1,1.206,5.058,3.717,3.717,0,0,1-1.494,1.35,5.071,5.071,0,0,1-2.358.5,7.573,7.573,0,0,1-2.376-.378,8.336,8.336,0,0,1-2.016-1.008l.936-1.638a6.287,6.287,0,0,0,1.548.828,4.919,4.919,0,0,0,1.71.342,3.451,3.451,0,0,0,1.1-.18,2,2,0,0,0,.918-.594,1.565,1.565,0,0,0,.378-1.1,1.458,1.458,0,0,0-.324-.954,2.86,2.86,0,0,0-.846-.684,6.88,6.88,0,0,0-1.116-.54q-.612-.234-1.26-.522a6.05,6.05,0,0,1-1.17-.7,3.526,3.526,0,0,1-.882-1.044,3.063,3.063,0,0,1-.342-1.512,3.389,3.389,0,0,1,1.89-3.132,5.107,5.107,0,0,1,2.07-.5,7.144,7.144,0,0,1,2.358.342,8.084,8.084,0,0,1,1.746.792Zm9.366-2.664h2.106V210h-2.106Zm17.233,13.572-9.45-9.162.054,8.694h-2.124V196.446h.108l9.414,9.288-.036-8.838h2.088v13.572Zm15.188,0-9.45-9.162L433.6,210h-2.124V196.446h.108L441,205.734l-.036-8.838h2.088v13.572Zm2.857-7a6.41,6.41,0,0,1,.522-2.574,6.732,6.732,0,0,1,1.44-2.142,6.644,6.644,0,0,1,2.124-1.458,6.394,6.394,0,0,1,2.61-.54,6.226,6.226,0,0,1,2.574.54,6.94,6.94,0,0,1,3.6,3.6,6.448,6.448,0,0,1,0,5.166,6.643,6.643,0,0,1-1.458,2.124,6.732,6.732,0,0,1-2.142,1.44,6.41,6.41,0,0,1-2.574.522,6.787,6.787,0,0,1-2.61-.5,6.946,6.946,0,0,1-2.124-1.422,6.789,6.789,0,0,1-1.44-2.124A6.628,6.628,0,0,1,445.853,203.466Zm2.16,0a4.638,4.638,0,0,0,.612,2.358,4.758,4.758,0,0,0,1.638,1.674,4.441,4.441,0,0,0,2.34.63,4.191,4.191,0,0,0,2.268-.63,4.678,4.678,0,0,0,2.232-4.032,4.7,4.7,0,0,0-2.25-4.068,4.528,4.528,0,0,0-4.608,0,4.67,4.67,0,0,0-1.638,1.71A4.747,4.747,0,0,0,448.013,203.466Zm14.573-6.57,3.456,8.622,3.312-8.622h2.466l-5.868,13.716L460.084,196.9ZM471.2,210l5.8-13.644h.126l5.8,13.644h-2.412l-1.206-3.078h-4.77L473.275,210Zm4.068-4.878h3.33L476.965,201Zm7.913-8.226h8.766v2.016h-3.384V210H486.48V198.912h-3.294Zm11.43,0h2.106V210h-2.106Zm4.9,6.57a6.41,6.41,0,0,1,.522-2.574,6.733,6.733,0,0,1,1.44-2.142,6.643,6.643,0,0,1,2.124-1.458,6.394,6.394,0,0,1,2.61-.54,6.226,6.226,0,0,1,2.574.54,6.941,6.941,0,0,1,3.6,3.6,6.447,6.447,0,0,1,0,5.166,6.643,6.643,0,0,1-1.458,2.124,6.732,6.732,0,0,1-2.142,1.44,6.41,6.41,0,0,1-2.574.522,6.787,6.787,0,0,1-2.61-.5,6.946,6.946,0,0,1-2.124-1.422,6.789,6.789,0,0,1-1.44-2.124A6.628,6.628,0,0,1,499.519,203.466Zm2.16,0a4.638,4.638,0,0,0,.612,2.358,4.758,4.758,0,0,0,1.638,1.674,4.441,4.441,0,0,0,2.34.63,4.191,4.191,0,0,0,2.268-.63,4.678,4.678,0,0,0,2.232-4.032,4.7,4.7,0,0,0-2.25-4.068,4.528,4.528,0,0,0-4.608,0,4.67,4.67,0,0,0-1.638,1.71A4.747,4.747,0,0,0,501.679,203.466Zm25.569,7-9.45-9.162.054,8.694h-2.124V196.446h.108l9.414,9.288-.036-8.838H527.3v13.572Z" fill="#fff"/>
  </g>
</svg>
