<svg xmlns="http://www.w3.org/2000/svg" width="64" height="64" viewBox="0 0 64 64">
  <g id="Group_31728" data-name="Group 31728" transform="translate(-6)">
    <g id="Group_31734" data-name="Group 31734" transform="translate(6)">
      <path id="Path_15" data-name="Path 15" d="M32,0A32,32,0,1,1,0,32,32,32,0,0,1,32,0Z" fill="#58b8ff"/>
      <path id="Path_35178" data-name="Path 35178" d="M94.417,84.853a12.873,12.873,0,0,1-3.619.965,6.164,6.164,0,0,0,2.771-3.385,12.771,12.771,0,0,1-4,1.485,6.382,6.382,0,0,0-4.6-1.929,6.208,6.208,0,0,0-6.3,6.113,5.934,5.934,0,0,0,.163,1.395,18.072,18.072,0,0,1-12.985-6.389,5.939,5.939,0,0,0-.853,3.073,6.063,6.063,0,0,0,2.8,5.088,6.405,6.405,0,0,1-2.855-.766v.078a6.168,6.168,0,0,0,5.054,6,6.514,6.514,0,0,1-1.66.215,6.349,6.349,0,0,1-1.184-.11,6.283,6.283,0,0,0,5.887,4.246,12.88,12.88,0,0,1-7.825,2.618,13.248,13.248,0,0,1-1.5-.086,18.233,18.233,0,0,0,9.66,2.748,17.531,17.531,0,0,0,17.926-17.4l-.018-.792A12.575,12.575,0,0,0,94.417,84.853Z" transform="translate(-46.708 -61.989)" fill="#fff"/>
    </g>
  </g>
</svg>
